<svg width="1420" height="350" viewBox="0 0 1420 350" fill="none" xmlns="http://www.w3.org/2000/svg">
<path d="M497.4 246.1C480.5 246.1 467.6 241.4 458.7 232C449.9 222.6 445.5 209.25 445.5 191.95C445.5 183.35 446.85 175.7 449.55 169C452.25 162.2 455.95 156.5 460.65 151.9C465.35 147.2 470.95 143.65 477.45 141.25C483.95 138.85 491 137.65 498.6 137.65C503 137.65 507 138 510.6 138.7C514.2 139.3 517.35 140.05 520.05 140.95C522.75 141.75 525 142.6 526.8 143.5C528.6 144.4 529.9 145.1 530.7 145.6L523.95 164.5C520.75 162.8 517 161.35 512.7 160.15C508.5 158.95 503.7 158.35 498.3 158.35C494.7 158.35 491.15 158.95 487.65 160.15C484.25 161.35 481.2 163.3 478.5 166C475.9 168.6 473.8 172 472.2 176.2C470.6 180.4 469.8 185.5 469.8 191.5C469.8 196.3 470.3 200.8 471.3 205C472.4 209.1 474.1 212.65 476.4 215.65C478.8 218.65 481.9 221.05 485.7 222.85C489.5 224.55 494.1 225.4 499.5 225.4C502.9 225.4 505.95 225.2 508.65 224.8C511.35 224.4 513.75 223.95 515.85 223.45C517.95 222.85 519.8 222.2 521.4 221.5C523 220.8 524.45 220.15 525.75 219.55L532.2 238.3C528.9 240.3 524.25 242.1 518.25 243.7C512.25 245.3 505.3 246.1 497.4 246.1ZM617.808 204.4C617.808 210.6 616.908 216.3 615.108 221.5C613.308 226.6 610.708 231 607.308 234.7C603.908 238.3 599.808 241.1 595.008 243.1C590.308 245.1 585.008 246.1 579.108 246.1C573.308 246.1 568.008 245.1 563.208 243.1C558.508 241.1 554.458 238.3 551.058 234.7C547.658 231 545.008 226.6 543.108 221.5C541.208 216.3 540.258 210.6 540.258 204.4C540.258 198.2 541.208 192.55 543.108 187.45C545.108 182.35 547.808 178 551.208 174.4C554.708 170.8 558.808 168 563.508 166C568.308 164 573.508 163 579.108 163C584.808 163 590.008 164 594.708 166C599.508 168 603.608 170.8 607.008 174.4C610.408 178 613.058 182.35 614.958 187.45C616.858 192.55 617.808 198.2 617.808 204.4ZM595.008 204.4C595.008 197.5 593.608 192.1 590.808 188.2C588.108 184.2 584.208 182.2 579.108 182.2C574.008 182.2 570.058 184.2 567.258 188.2C564.458 192.1 563.058 197.5 563.058 204.4C563.058 211.3 564.458 216.8 567.258 220.9C570.058 224.9 574.008 226.9 579.108 226.9C584.208 226.9 588.108 224.9 590.808 220.9C593.608 216.8 595.008 211.3 595.008 204.4ZM654.171 203.95C654.171 210.85 655.721 216.4 658.821 220.6C661.921 224.8 666.521 226.9 672.621 226.9C674.621 226.9 676.471 226.85 678.171 226.75C679.871 226.55 681.271 226.35 682.371 226.15V185.5C680.971 184.6 679.121 183.85 676.821 183.25C674.621 182.65 672.371 182.35 670.071 182.35C659.471 182.35 654.171 189.55 654.171 203.95ZM704.721 241.45C702.721 242.05 700.421 242.65 697.821 243.25C695.221 243.75 692.471 244.2 689.571 244.6C686.771 245 683.871 245.3 680.871 245.5C677.971 245.8 675.171 245.95 672.471 245.95C665.971 245.95 660.171 245 655.071 243.1C649.971 241.2 645.671 238.5 642.171 235C638.671 231.4 635.971 227.1 634.071 222.1C632.271 217 631.371 211.3 631.371 205C631.371 198.6 632.171 192.85 633.771 187.75C635.371 182.55 637.671 178.15 640.671 174.55C643.671 170.95 647.321 168.2 651.621 166.3C656.021 164.4 661.021 163.45 666.621 163.45C669.721 163.45 672.471 163.75 674.871 164.35C677.371 164.95 679.871 165.8 682.371 166.9V131.2L704.721 127.6V241.45ZM755.798 228.4C757.998 228.4 760.098 228.35 762.098 228.25C764.098 228.15 765.698 228 766.898 227.8V210.85C765.998 210.65 764.648 210.45 762.848 210.25C761.048 210.05 759.398 209.95 757.898 209.95C755.798 209.95 753.798 210.1 751.898 210.4C750.098 210.6 748.498 211.05 747.098 211.75C745.698 212.45 744.598 213.4 743.798 214.6C742.998 215.8 742.598 217.3 742.598 219.1C742.598 222.6 743.748 225.05 746.048 226.45C748.448 227.75 751.698 228.4 755.798 228.4ZM753.998 163C760.598 163 766.098 163.75 770.498 165.25C774.898 166.75 778.398 168.9 780.998 171.7C783.698 174.5 785.598 177.9 786.698 181.9C787.798 185.9 788.348 190.35 788.348 195.25V241.75C785.148 242.45 780.698 243.25 774.998 244.15C769.298 245.15 762.398 245.65 754.298 245.65C749.198 245.65 744.548 245.2 740.348 244.3C736.248 243.4 732.698 241.95 729.698 239.95C726.698 237.85 724.398 235.15 722.798 231.85C721.198 228.55 720.398 224.5 720.398 219.7C720.398 215.1 721.298 211.2 723.098 208C724.998 204.8 727.498 202.25 730.598 200.35C733.698 198.45 737.248 197.1 741.248 196.3C745.248 195.4 749.398 194.95 753.698 194.95C756.598 194.95 759.148 195.1 761.348 195.4C763.648 195.6 765.498 195.9 766.898 196.3V194.2C766.898 190.4 765.748 187.35 763.448 185.05C761.148 182.75 757.148 181.6 751.448 181.6C747.648 181.6 743.898 181.9 740.198 182.5C736.498 183 733.298 183.75 730.598 184.75L727.748 166.75C729.048 166.35 730.648 165.95 732.548 165.55C734.548 165.05 736.698 164.65 738.998 164.35C741.298 163.95 743.698 163.65 746.198 163.45C748.798 163.15 751.398 163 753.998 163ZM840.059 245.5C833.559 245.4 828.259 244.7 824.159 243.4C820.159 242.1 816.959 240.3 814.559 238C812.259 235.6 810.659 232.75 809.759 229.45C808.959 226.05 808.559 222.25 808.559 218.05V131.2L830.909 127.6V213.55C830.909 215.55 831.059 217.35 831.359 218.95C831.659 220.55 832.209 221.9 833.009 223C833.909 224.1 835.159 225 836.759 225.7C838.359 226.4 840.509 226.85 843.209 227.05L840.059 245.5ZM852.27 205.15C852.27 198.15 853.32 192.05 855.42 186.85C857.62 181.55 860.47 177.15 863.97 173.65C867.47 170.15 871.47 167.5 875.97 165.7C880.57 163.9 885.27 163 890.07 163C901.27 163 910.12 166.45 916.62 173.35C923.12 180.15 926.37 190.2 926.37 203.5C926.37 204.8 926.32 206.25 926.22 207.85C926.12 209.35 926.02 210.7 925.92 211.9H875.22C875.72 216.5 877.87 220.15 881.67 222.85C885.47 225.55 890.57 226.9 896.97 226.9C901.07 226.9 905.07 226.55 908.97 225.85C912.97 225.05 916.22 224.1 918.72 223L921.72 241.15C920.52 241.75 918.92 242.35 916.92 242.95C914.92 243.55 912.67 244.05 910.17 244.45C907.77 244.95 905.17 245.35 902.37 245.65C899.57 245.95 896.77 246.1 893.97 246.1C886.87 246.1 880.67 245.05 875.37 242.95C870.17 240.85 865.82 238 862.32 234.4C858.92 230.7 856.37 226.35 854.67 221.35C853.07 216.35 852.27 210.95 852.27 205.15ZM904.77 196.6C904.67 194.7 904.32 192.85 903.72 191.05C903.22 189.25 902.37 187.65 901.17 186.25C900.07 184.85 898.62 183.7 896.82 182.8C895.12 181.9 892.97 181.45 890.37 181.45C887.87 181.45 885.72 181.9 883.92 182.8C882.12 183.6 880.62 184.7 879.42 186.1C878.22 187.5 877.27 189.15 876.57 191.05C875.97 192.85 875.52 194.7 875.22 196.6H904.77ZM992.517 246.1C975.617 246.1 962.717 241.4 953.817 232C945.017 222.6 940.617 209.25 940.617 191.95C940.617 183.35 941.967 175.7 944.667 169C947.367 162.2 951.067 156.5 955.767 151.9C960.467 147.2 966.067 143.65 972.567 141.25C979.067 138.85 986.117 137.65 993.717 137.65C998.117 137.65 1002.12 138 1005.72 138.7C1009.32 139.3 1012.47 140.05 1015.17 140.95C1017.87 141.75 1020.12 142.6 1021.92 143.5C1023.72 144.4 1025.02 145.1 1025.82 145.6L1019.07 164.5C1015.87 162.8 1012.12 161.35 1007.82 160.15C1003.62 158.95 998.817 158.35 993.417 158.35C989.817 158.35 986.267 158.95 982.767 160.15C979.367 161.35 976.317 163.3 973.617 166C971.017 168.6 968.917 172 967.317 176.2C965.717 180.4 964.917 185.5 964.917 191.5C964.917 196.3 965.417 200.8 966.417 205C967.517 209.1 969.217 212.65 971.517 215.65C973.917 218.65 977.017 221.05 980.817 222.85C984.617 224.55 989.217 225.4 994.617 225.4C998.017 225.4 1001.07 225.2 1003.77 224.8C1006.47 224.4 1008.87 223.95 1010.97 223.45C1013.07 222.85 1014.92 222.2 1016.52 221.5C1018.12 220.8 1019.57 220.15 1020.87 219.55L1027.32 238.3C1024.02 240.3 1019.37 242.1 1013.37 243.7C1007.37 245.3 1000.42 246.1 992.517 246.1ZM1035.38 205.15C1035.38 198.15 1036.43 192.05 1038.52 186.85C1040.73 181.55 1043.58 177.15 1047.08 173.65C1050.58 170.15 1054.58 167.5 1059.08 165.7C1063.68 163.9 1068.38 163 1073.18 163C1084.38 163 1093.23 166.45 1099.73 173.35C1106.23 180.15 1109.48 190.2 1109.48 203.5C1109.48 204.8 1109.43 206.25 1109.33 207.85C1109.23 209.35 1109.13 210.7 1109.03 211.9H1058.33C1058.83 216.5 1060.98 220.15 1064.78 222.85C1068.58 225.55 1073.68 226.9 1080.08 226.9C1084.18 226.9 1088.18 226.55 1092.08 225.85C1096.08 225.05 1099.33 224.1 1101.83 223L1104.83 241.15C1103.63 241.75 1102.03 242.35 1100.03 242.95C1098.03 243.55 1095.78 244.05 1093.28 244.45C1090.88 244.95 1088.28 245.35 1085.48 245.65C1082.68 245.95 1079.88 246.1 1077.08 246.1C1069.98 246.1 1063.78 245.05 1058.48 242.95C1053.28 240.85 1048.93 238 1045.43 234.4C1042.03 230.7 1039.48 226.35 1037.78 221.35C1036.18 216.35 1035.38 210.95 1035.38 205.15ZM1087.88 196.6C1087.78 194.7 1087.43 192.85 1086.83 191.05C1086.33 189.25 1085.48 187.65 1084.28 186.25C1083.18 184.85 1081.73 183.7 1079.93 182.8C1078.23 181.9 1076.08 181.45 1073.48 181.45C1070.98 181.45 1068.83 181.9 1067.03 182.8C1065.23 183.6 1063.73 184.7 1062.53 186.1C1061.33 187.5 1060.38 189.15 1059.68 191.05C1059.08 192.85 1058.63 194.7 1058.33 196.6H1087.88ZM1126.72 167.8C1130.52 166.7 1135.42 165.7 1141.42 164.8C1147.42 163.8 1153.72 163.3 1160.32 163.3C1167.02 163.3 1172.57 164.2 1176.97 166C1181.47 167.7 1185.02 170.15 1187.62 173.35C1190.22 176.55 1192.07 180.35 1193.17 184.75C1194.27 189.15 1194.82 194.05 1194.82 199.45V244H1172.47V202.15C1172.47 194.95 1171.52 189.85 1169.62 186.85C1167.72 183.85 1164.17 182.35 1158.97 182.35C1157.37 182.35 1155.67 182.45 1153.87 182.65C1152.07 182.75 1150.47 182.9 1149.07 183.1V244H1126.72V167.8ZM1214.3 145.45L1236.65 141.85V165.1H1263.5V183.7H1236.65V211.45C1236.65 216.15 1237.45 219.9 1239.05 222.7C1240.75 225.5 1244.1 226.9 1249.1 226.9C1251.5 226.9 1253.95 226.7 1256.45 226.3C1259.05 225.8 1261.4 225.15 1263.5 224.35L1266.65 241.75C1263.95 242.85 1260.95 243.8 1257.65 244.6C1254.35 245.4 1250.3 245.8 1245.5 245.8C1239.4 245.8 1234.35 245 1230.35 243.4C1226.35 241.7 1223.15 239.4 1220.75 236.5C1218.35 233.5 1216.65 229.9 1215.65 225.7C1214.75 221.5 1214.3 216.85 1214.3 211.75V145.45ZM1275.02 205.15C1275.02 198.15 1276.07 192.05 1278.17 186.85C1280.37 181.55 1283.22 177.15 1286.72 173.65C1290.22 170.15 1294.22 167.5 1298.72 165.7C1303.32 163.9 1308.02 163 1312.82 163C1324.02 163 1332.87 166.45 1339.37 173.35C1345.87 180.15 1349.12 190.2 1349.12 203.5C1349.12 204.8 1349.07 206.25 1348.97 207.85C1348.87 209.35 1348.77 210.7 1348.67 211.9H1297.97C1298.47 216.5 1300.62 220.15 1304.42 222.85C1308.22 225.55 1313.32 226.9 1319.72 226.9C1323.82 226.9 1327.82 226.55 1331.72 225.85C1335.72 225.05 1338.97 224.1 1341.47 223L1344.47 241.15C1343.27 241.75 1341.67 242.35 1339.67 242.95C1337.67 243.55 1335.42 244.05 1332.92 244.45C1330.52 244.95 1327.92 245.35 1325.12 245.65C1322.32 245.95 1319.52 246.1 1316.72 246.1C1309.62 246.1 1303.42 245.05 1298.12 242.95C1292.92 240.85 1288.57 238 1285.07 234.4C1281.67 230.7 1279.12 226.35 1277.42 221.35C1275.82 216.35 1275.02 210.95 1275.02 205.15ZM1327.52 196.6C1327.42 194.7 1327.07 192.85 1326.47 191.05C1325.97 189.25 1325.12 187.65 1323.92 186.25C1322.82 184.85 1321.37 183.7 1319.57 182.8C1317.87 181.9 1315.72 181.45 1313.12 181.45C1310.62 181.45 1308.47 181.9 1306.67 182.8C1304.87 183.6 1303.37 184.7 1302.17 186.1C1300.97 187.5 1300.02 189.15 1299.32 191.05C1298.72 192.85 1298.27 194.7 1297.97 196.6H1327.52ZM1413.92 184.9C1411.92 184.4 1409.57 183.9 1406.87 183.4C1404.17 182.8 1401.27 182.5 1398.17 182.5C1396.77 182.5 1395.07 182.65 1393.07 182.95C1391.17 183.15 1389.72 183.4 1388.72 183.7V244H1366.37V169.3C1370.37 167.9 1375.07 166.6 1380.47 165.4C1385.97 164.1 1392.07 163.45 1398.77 163.45C1399.97 163.45 1401.42 163.55 1403.12 163.75C1404.82 163.85 1406.52 164.05 1408.22 164.35C1409.92 164.55 1411.62 164.85 1413.32 165.25C1415.02 165.55 1416.47 165.95 1417.67 166.45L1413.92 184.9Z" fill="white"/>
<path fill-rule="evenodd" clip-rule="evenodd" d="M40 0C17.9087 0 0 17.9086 0 40V232C0 270.081 23.3911 302.698 56.5889 316.269C39.5723 299.733 29 276.601 29 251V59C29 36.9086 46.9087 19 69 19H317C317.729 19 318.453 19.0223 319.171 19.0662C313.373 7.74705 301.591 0 288 0H40Z" fill="white"/>
<path fill-rule="evenodd" clip-rule="evenodd" d="M85 27C62.9087 27 45 44.9086 45 67V259C45 309.258 85.7422 350 136 350H313C343.375 350 368 325.376 368 295V62C368 42.67 352.33 27 333 27H85ZM176 171.8L133 189.9V202.3L176 220.4L179.9 208.3L148.5 196.1L179.9 183.9L176 171.8ZM182.336 244.5H197.636L231.036 147.7H215.936L182.336 244.5ZM237.288 220.4L280.288 202.3V189.9L237.288 171.8L233.388 183.9L264.788 196.1L233.388 208.3L237.288 220.4Z" fill="white"/>
</svg>
