<svg width="1404" height="342" viewBox="0 0 1404 342" fill="none" xmlns="http://www.w3.org/2000/svg">
<path d="M481.4 239.1C464.5 239.1 451.6 234.4 442.7 225C433.9 215.6 429.5 202.25 429.5 184.95C429.5 176.35 430.85 168.7 433.55 162C436.25 155.2 439.95 149.5 444.65 144.9C449.35 140.2 454.95 136.65 461.45 134.25C467.95 131.85 475 130.65 482.6 130.65C487 130.65 491 131 494.6 131.7C498.2 132.3 501.35 133.05 504.05 133.95C506.75 134.75 509 135.6 510.8 136.5C512.6 137.4 513.9 138.1 514.7 138.6L507.95 157.5C504.75 155.8 501 154.35 496.7 153.15C492.5 151.95 487.7 151.35 482.3 151.35C478.7 151.35 475.15 151.95 471.65 153.15C468.25 154.35 465.2 156.3 462.5 159C459.9 161.6 457.8 165 456.2 169.2C454.6 173.4 453.8 178.5 453.8 184.5C453.8 189.3 454.3 193.8 455.3 198C456.4 202.1 458.1 205.65 460.4 208.65C462.8 211.65 465.9 214.05 469.7 215.85C473.5 217.55 478.1 218.4 483.5 218.4C486.9 218.4 489.95 218.2 492.65 217.8C495.35 217.4 497.75 216.95 499.85 216.45C501.95 215.85 503.8 215.2 505.4 214.5C507 213.8 508.45 213.15 509.75 212.55L516.2 231.3C512.9 233.3 508.25 235.1 502.25 236.7C496.25 238.3 489.3 239.1 481.4 239.1ZM601.808 197.4C601.808 203.6 600.908 209.3 599.108 214.5C597.308 219.6 594.708 224 591.308 227.7C587.908 231.3 583.808 234.1 579.008 236.1C574.308 238.1 569.008 239.1 563.108 239.1C557.308 239.1 552.008 238.1 547.208 236.1C542.508 234.1 538.458 231.3 535.058 227.7C531.658 224 529.008 219.6 527.108 214.5C525.208 209.3 524.258 203.6 524.258 197.4C524.258 191.2 525.208 185.55 527.108 180.45C529.108 175.35 531.808 171 535.208 167.4C538.708 163.8 542.808 161 547.508 159C552.308 157 557.508 156 563.108 156C568.808 156 574.008 157 578.708 159C583.508 161 587.608 163.8 591.008 167.4C594.408 171 597.058 175.35 598.958 180.45C600.858 185.55 601.808 191.2 601.808 197.4ZM579.008 197.4C579.008 190.5 577.608 185.1 574.808 181.2C572.108 177.2 568.208 175.2 563.108 175.2C558.008 175.2 554.058 177.2 551.258 181.2C548.458 185.1 547.058 190.5 547.058 197.4C547.058 204.3 548.458 209.8 551.258 213.9C554.058 217.9 558.008 219.9 563.108 219.9C568.208 219.9 572.108 217.9 574.808 213.9C577.608 209.8 579.008 204.3 579.008 197.4ZM638.171 196.95C638.171 203.85 639.721 209.4 642.821 213.6C645.921 217.8 650.521 219.9 656.621 219.9C658.621 219.9 660.471 219.85 662.171 219.75C663.871 219.55 665.271 219.35 666.371 219.15V178.5C664.971 177.6 663.121 176.85 660.821 176.25C658.621 175.65 656.371 175.35 654.071 175.35C643.471 175.35 638.171 182.55 638.171 196.95ZM688.721 234.45C686.721 235.05 684.421 235.65 681.821 236.25C679.221 236.75 676.471 237.2 673.571 237.6C670.771 238 667.871 238.3 664.871 238.5C661.971 238.8 659.171 238.95 656.471 238.95C649.971 238.95 644.171 238 639.071 236.1C633.971 234.2 629.671 231.5 626.171 228C622.671 224.4 619.971 220.1 618.071 215.1C616.271 210 615.371 204.3 615.371 198C615.371 191.6 616.171 185.85 617.771 180.75C619.371 175.55 621.671 171.15 624.671 167.55C627.671 163.95 631.321 161.2 635.621 159.3C640.021 157.4 645.021 156.45 650.621 156.45C653.721 156.45 656.471 156.75 658.871 157.35C661.371 157.95 663.871 158.8 666.371 159.9V124.2L688.721 120.6V234.45ZM739.798 221.4C741.998 221.4 744.098 221.35 746.098 221.25C748.098 221.15 749.698 221 750.898 220.8V203.85C749.998 203.65 748.648 203.45 746.848 203.25C745.048 203.05 743.398 202.95 741.898 202.95C739.798 202.95 737.798 203.1 735.898 203.4C734.098 203.6 732.498 204.05 731.098 204.75C729.698 205.45 728.598 206.4 727.798 207.6C726.998 208.8 726.598 210.3 726.598 212.1C726.598 215.6 727.748 218.05 730.048 219.45C732.448 220.75 735.698 221.4 739.798 221.4ZM737.998 156C744.598 156 750.098 156.75 754.498 158.25C758.898 159.75 762.398 161.9 764.998 164.7C767.698 167.5 769.598 170.9 770.698 174.9C771.798 178.9 772.348 183.35 772.348 188.25V234.75C769.148 235.45 764.698 236.25 758.998 237.15C753.298 238.15 746.398 238.65 738.298 238.65C733.198 238.65 728.548 238.2 724.348 237.3C720.248 236.4 716.698 234.95 713.698 232.95C710.698 230.85 708.398 228.15 706.798 224.85C705.198 221.55 704.398 217.5 704.398 212.7C704.398 208.1 705.298 204.2 707.098 201C708.998 197.8 711.498 195.25 714.598 193.35C717.698 191.45 721.248 190.1 725.248 189.3C729.248 188.4 733.398 187.95 737.698 187.95C740.598 187.95 743.148 188.1 745.348 188.4C747.648 188.6 749.498 188.9 750.898 189.3V187.2C750.898 183.4 749.748 180.35 747.448 178.05C745.148 175.75 741.148 174.6 735.448 174.6C731.648 174.6 727.898 174.9 724.198 175.5C720.498 176 717.298 176.75 714.598 177.75L711.748 159.75C713.048 159.35 714.648 158.95 716.548 158.55C718.548 158.05 720.698 157.65 722.998 157.35C725.298 156.95 727.698 156.65 730.198 156.45C732.798 156.15 735.398 156 737.998 156ZM824.059 238.5C817.559 238.4 812.259 237.7 808.159 236.4C804.159 235.1 800.959 233.3 798.559 231C796.259 228.6 794.659 225.75 793.759 222.45C792.959 219.05 792.559 215.25 792.559 211.05V124.2L814.909 120.6V206.55C814.909 208.55 815.059 210.35 815.359 211.95C815.659 213.55 816.209 214.9 817.009 216C817.909 217.1 819.159 218 820.759 218.7C822.359 219.4 824.509 219.85 827.209 220.05L824.059 238.5ZM836.27 198.15C836.27 191.15 837.32 185.05 839.42 179.85C841.62 174.55 844.47 170.15 847.97 166.65C851.47 163.15 855.47 160.5 859.97 158.7C864.57 156.9 869.27 156 874.07 156C885.27 156 894.12 159.45 900.62 166.35C907.12 173.15 910.37 183.2 910.37 196.5C910.37 197.8 910.32 199.25 910.22 200.85C910.12 202.35 910.02 203.7 909.92 204.9H859.22C859.72 209.5 861.87 213.15 865.67 215.85C869.47 218.55 874.57 219.9 880.97 219.9C885.07 219.9 889.07 219.55 892.97 218.85C896.97 218.05 900.22 217.1 902.72 216L905.72 234.15C904.52 234.75 902.92 235.35 900.92 235.95C898.92 236.55 896.67 237.05 894.17 237.45C891.77 237.95 889.17 238.35 886.37 238.65C883.57 238.95 880.77 239.1 877.97 239.1C870.87 239.1 864.67 238.05 859.37 235.95C854.17 233.85 849.82 231 846.32 227.4C842.92 223.7 840.37 219.35 838.67 214.35C837.07 209.35 836.27 203.95 836.27 198.15ZM888.77 189.6C888.67 187.7 888.32 185.85 887.72 184.05C887.22 182.25 886.37 180.65 885.17 179.25C884.07 177.85 882.62 176.7 880.82 175.8C879.12 174.9 876.97 174.45 874.37 174.45C871.87 174.45 869.72 174.9 867.92 175.8C866.12 176.6 864.62 177.7 863.42 179.1C862.22 180.5 861.27 182.15 860.57 184.05C859.97 185.85 859.52 187.7 859.22 189.6H888.77ZM976.517 239.1C959.617 239.1 946.717 234.4 937.817 225C929.017 215.6 924.617 202.25 924.617 184.95C924.617 176.35 925.967 168.7 928.667 162C931.367 155.2 935.067 149.5 939.767 144.9C944.467 140.2 950.067 136.65 956.567 134.25C963.067 131.85 970.117 130.65 977.717 130.65C982.117 130.65 986.117 131 989.717 131.7C993.317 132.3 996.467 133.05 999.167 133.95C1001.87 134.75 1004.12 135.6 1005.92 136.5C1007.72 137.4 1009.02 138.1 1009.82 138.6L1003.07 157.5C999.867 155.8 996.117 154.35 991.817 153.15C987.617 151.95 982.817 151.35 977.417 151.35C973.817 151.35 970.267 151.95 966.767 153.15C963.367 154.35 960.317 156.3 957.617 159C955.017 161.6 952.917 165 951.317 169.2C949.717 173.4 948.917 178.5 948.917 184.5C948.917 189.3 949.417 193.8 950.417 198C951.517 202.1 953.217 205.65 955.517 208.65C957.917 211.65 961.017 214.05 964.817 215.85C968.617 217.55 973.217 218.4 978.617 218.4C982.017 218.4 985.067 218.2 987.767 217.8C990.467 217.4 992.867 216.95 994.967 216.45C997.067 215.85 998.917 215.2 1000.52 214.5C1002.12 213.8 1003.57 213.15 1004.87 212.55L1011.32 231.3C1008.02 233.3 1003.37 235.1 997.367 236.7C991.367 238.3 984.417 239.1 976.517 239.1ZM1019.38 198.15C1019.38 191.15 1020.43 185.05 1022.52 179.85C1024.73 174.55 1027.58 170.15 1031.08 166.65C1034.58 163.15 1038.58 160.5 1043.08 158.7C1047.68 156.9 1052.38 156 1057.18 156C1068.38 156 1077.23 159.45 1083.73 166.35C1090.23 173.15 1093.48 183.2 1093.48 196.5C1093.48 197.8 1093.43 199.25 1093.33 200.85C1093.23 202.35 1093.13 203.7 1093.03 204.9H1042.33C1042.83 209.5 1044.98 213.15 1048.78 215.85C1052.58 218.55 1057.68 219.9 1064.08 219.9C1068.18 219.9 1072.18 219.55 1076.08 218.85C1080.08 218.05 1083.33 217.1 1085.83 216L1088.83 234.15C1087.63 234.75 1086.03 235.35 1084.03 235.95C1082.03 236.55 1079.78 237.05 1077.28 237.45C1074.88 237.95 1072.28 238.35 1069.48 238.65C1066.68 238.95 1063.88 239.1 1061.08 239.1C1053.98 239.1 1047.78 238.05 1042.48 235.95C1037.28 233.85 1032.93 231 1029.43 227.4C1026.03 223.7 1023.48 219.35 1021.78 214.35C1020.18 209.35 1019.38 203.95 1019.38 198.15ZM1071.88 189.6C1071.78 187.7 1071.43 185.85 1070.83 184.05C1070.33 182.25 1069.48 180.65 1068.28 179.25C1067.18 177.85 1065.73 176.7 1063.93 175.8C1062.23 174.9 1060.08 174.45 1057.48 174.45C1054.98 174.45 1052.83 174.9 1051.03 175.8C1049.23 176.6 1047.73 177.7 1046.53 179.1C1045.33 180.5 1044.38 182.15 1043.68 184.05C1043.08 185.85 1042.63 187.7 1042.33 189.6H1071.88ZM1110.72 160.8C1114.52 159.7 1119.42 158.7 1125.42 157.8C1131.42 156.8 1137.72 156.3 1144.32 156.3C1151.02 156.3 1156.57 157.2 1160.97 159C1165.47 160.7 1169.02 163.15 1171.62 166.35C1174.22 169.55 1176.07 173.35 1177.17 177.75C1178.27 182.15 1178.82 187.05 1178.82 192.45V237H1156.47V195.15C1156.47 187.95 1155.52 182.85 1153.62 179.85C1151.72 176.85 1148.17 175.35 1142.97 175.35C1141.37 175.35 1139.67 175.45 1137.87 175.65C1136.07 175.75 1134.47 175.9 1133.07 176.1V237H1110.72V160.8ZM1198.3 138.45L1220.65 134.85V158.1H1247.5V176.7H1220.65V204.45C1220.65 209.15 1221.45 212.9 1223.05 215.7C1224.75 218.5 1228.1 219.9 1233.1 219.9C1235.5 219.9 1237.95 219.7 1240.45 219.3C1243.05 218.8 1245.4 218.15 1247.5 217.35L1250.65 234.75C1247.95 235.85 1244.95 236.8 1241.65 237.6C1238.35 238.4 1234.3 238.8 1229.5 238.8C1223.4 238.8 1218.35 238 1214.35 236.4C1210.35 234.7 1207.15 232.4 1204.75 229.5C1202.35 226.5 1200.65 222.9 1199.65 218.7C1198.75 214.5 1198.3 209.85 1198.3 204.75V138.45ZM1259.02 198.15C1259.02 191.15 1260.07 185.05 1262.17 179.85C1264.37 174.55 1267.22 170.15 1270.72 166.65C1274.22 163.15 1278.22 160.5 1282.72 158.7C1287.32 156.9 1292.02 156 1296.82 156C1308.02 156 1316.87 159.45 1323.37 166.35C1329.87 173.15 1333.12 183.2 1333.12 196.5C1333.12 197.8 1333.07 199.25 1332.97 200.85C1332.87 202.35 1332.77 203.7 1332.67 204.9H1281.97C1282.47 209.5 1284.62 213.15 1288.42 215.85C1292.22 218.55 1297.32 219.9 1303.72 219.9C1307.82 219.9 1311.82 219.55 1315.72 218.85C1319.72 218.05 1322.97 217.1 1325.47 216L1328.47 234.15C1327.27 234.75 1325.67 235.35 1323.67 235.95C1321.67 236.55 1319.42 237.05 1316.92 237.45C1314.52 237.95 1311.92 238.35 1309.12 238.65C1306.32 238.95 1303.52 239.1 1300.72 239.1C1293.62 239.1 1287.42 238.05 1282.12 235.95C1276.92 233.85 1272.57 231 1269.07 227.4C1265.67 223.7 1263.12 219.35 1261.42 214.35C1259.82 209.35 1259.02 203.95 1259.02 198.15ZM1311.52 189.6C1311.42 187.7 1311.07 185.85 1310.47 184.05C1309.97 182.25 1309.12 180.65 1307.92 179.25C1306.82 177.85 1305.37 176.7 1303.57 175.8C1301.87 174.9 1299.72 174.45 1297.12 174.45C1294.62 174.45 1292.47 174.9 1290.67 175.8C1288.87 176.6 1287.37 177.7 1286.17 179.1C1284.97 180.5 1284.02 182.15 1283.32 184.05C1282.72 185.85 1282.27 187.7 1281.97 189.6H1311.52ZM1397.92 177.9C1395.92 177.4 1393.57 176.9 1390.87 176.4C1388.17 175.8 1385.27 175.5 1382.17 175.5C1380.77 175.5 1379.07 175.65 1377.07 175.95C1375.17 176.15 1373.72 176.4 1372.72 176.7V237H1350.37V162.3C1354.37 160.9 1359.07 159.6 1364.47 158.4C1369.97 157.1 1376.07 156.45 1382.77 156.45C1383.97 156.45 1385.42 156.55 1387.12 156.75C1388.82 156.85 1390.52 157.05 1392.22 157.35C1393.92 157.55 1395.62 157.85 1397.32 158.25C1399.02 158.55 1400.47 158.95 1401.67 159.45L1397.92 177.9Z" fill="#121212"/>
<path d="M0 40C0 17.9086 17.9086 0 40 0H288C307.33 0 323 15.67 323 35V268C323 298.376 298.376 323 268 323H91C40.7421 323 0 282.258 0 232V40Z" fill="black"/>
<path d="M29 59C29 36.9086 46.9086 19 69 19H317C336.33 19 352 34.67 352 54V287C352 317.376 327.376 342 297 342H120C69.7421 342 29 301.258 29 251V59Z" fill="#F25C05"/>
<path d="M117 181.9L160 163.8L163.9 175.9L132.5 188.1L163.9 200.3L160 212.4L117 194.3V181.9ZM181.636 236.5H166.336L199.936 139.7H215.036L181.636 236.5ZM264.288 194.3L221.288 212.4L217.388 200.3L248.788 188.1L217.388 175.9L221.288 163.8L264.288 181.9V194.3Z" fill="black"/>
</svg>
